<?xml version="1.0" encoding="UTF-8" standalone="no"?>
<svg
   width="1024"
   height="1000"
   viewBox="0 0 1024 1000"
   fill="none"
   version="1.1"
   id="svg35"
   sodipodi:docname="icebox_defense.svg"
   inkscape:version="1.4.2 (f4327f4, 2025-05-13)"
   xmlns:inkscape="http://www.inkscape.org/namespaces/inkscape"
   xmlns:sodipodi="http://sodipodi.sourceforge.net/DTD/sodipodi-0.dtd"
   xmlns="http://www.w3.org/2000/svg"
   xmlns:svg="http://www.w3.org/2000/svg">
  <sodipodi:namedview
     id="namedview35"
     pagecolor="#ffffff"
     bordercolor="#000000"
     borderopacity="0.25"
     inkscape:showpageshadow="2"
     inkscape:pageopacity="0.0"
     inkscape:pagecheckerboard="0"
     inkscape:deskcolor="#d1d1d1"
     inkscape:zoom="0.807"
     inkscape:cx="565.05576"
     inkscape:cy="415.7373"
     inkscape:window-width="1920"
     inkscape:window-height="1009"
     inkscape:window-x="-8"
     inkscape:window-y="-8"
     inkscape:window-maximized="1"
     inkscape:current-layer="g33" />
  <g
     clip-path="url(#clip0)"
     id="g34">
    <g
       clip-path="url(#clip1)"
       id="g33">
      <path
         d="m 98.701,561.9 v 177.3 h 111.8 v 9.9 h -3.4 v 92 l 20.9,-3.5 h 6.4 l 13.1,0.4 49.4,20.9 7.9,11.3 20.6,-7.3 c 0,0 10.3,-10.5 11.5,-10.1 1.1,0.4 5.9,2.3 5.9,2.3 l 10.4,7.8 h 34.3 l -0.1,27.8 -13,20.6 v 46 h 121.1 v -39.8 l -18.3,-29.1 v -23.5 l 25.2,-0.1 6.6,-18.3 -0.1,-15.6 22.5,-11.7 25.6,-17.6 0.9,-24.3 h 51.6 l 15.1,-8.9 h 7.4 l 13.4,10.4 h 56.1 l 7.1,6.4 14.5,-7.6 29,38.2 20.7,-12.2 0.6,-32.7 86.4,-0.3 15.7,-30 v -69.4 h -7.9 l -36.8,-28.9 v -34.4 l 36.8,-29.9 h 29.2 V 361.9 h -83.6 v 8.3 h -56.3 v -22.7 h -33.4 v 15.4 h -70.5 v -16.4 h -37.2 v -82.6 h -67 v -73.5 h -133.2 v -8.3 h 130.3 v -37.2 h -99.4 V 26.1 h -95.6 v 122.1 h -38.4 v 33.9 h 62.8 v 8.3 l -253.5,1.7 v 26.7 h -2.7 v 99.5 h 4.4 v 16 h -24.1 v 217.6 h 55.3 v 10 z m 247.8,187 h -105.1 v -10.5 h 96.1 V 677 h 9 z M 237.301,417.5 V 367 h 68.4 v 50.5 z m 344.9,284.8 -46.2,-0.3 46.2,-35.3 z m -24.8,-117.2 v -25.2 l 106.9,-0.4 V 585 h -106.9 z m 219.7,117.2 h -169.9 l -0.3,-45.3 -10.8,-0.1 0.1,-5.7 h 157.6 l -0.3,-24.2 h 23.6 z m -325.1,-401.2 h 66.7 v 94.4 h 30.8 v 50 l 208,0.5 v 72.5 h -136.3 v -25 h -99.5 l -1.1,-85.2 h -29.7 v -31.1 h -38.9 z m -157.9,24 h 51 v 101 h 84.9 v 27.7 h 23.6 v 78.8 h -23 v -2.8 h -85 v 95 h -67.9 v -49.4 h -22.8 v -47.8 h 83.9 l -0.6,-193 h -44.3 v -9.5 z m -127.3,-4.7 h 81.3 v 14.4 l -81.3,1.1 z"
         fill="#28204a"
         id="path1" />
      <path
         d="m 744.48,519.415 v 12.9 h 13 v -12.9 z m -93.293,65.729 v 12.9 h 13 v -12.9 z m -91.14,29.868 v 12.9 h 13 v -12.9 z M 878.872,362.259 v 14.4 h 18 v -14.4 z m 11.328,14.924 v 6.6 h 6.7 v -6.6 z m -233.865,51.921 v 14.4 h 18 v -14.4 z m 37.339,-48.72 v 14.4 h 15.6 v -14.4 z"
         stroke="#60558f"
         stroke-width="2"
         stroke-miterlimit="10"
         id="path2" />
      <path
         d="m 688.184,389.315 v 5.5 h 5.5 v -5.5 z M 390.265,585.123 v 68.8 h 24.8 v -68.8 z m -112.56,-77.065 v 18 h 12.4 v -18 z m 39.526,-5.341 v 6.8 h 5.1 v -6.8 z m -5.969,-0.03 v 6.8 h 5.1 v -6.8 z M 99.406,334.596 v 13.7 h 11.8 v -13.7 z m 0.073,13.98 v 6.8 h 5.9 v -6.8 z m 67.704,69.293 v 13.6 h 12.4 v -13.6 z m 178.851,-76.176 v 13.3 h 12.4 v -13.3 z m 12.402,6.736 v 6.6 h 9.2 v -6.6 z m -57.432,-30.298 v 7.6 h 11.8 v -7.6 z m 45.079,16.193 v 6.6 h 6.2 v -6.6 z m 149.321,-39.813 v 6.6 h 6.2 v -6.6 z M 461.059,205.42 v 13.3 h 19.6 v -13.3 z m -27.41,-14.677 v 27.9 h 27.1 v -27.9 z m -122.585,0.097 v 18.6 h 24.7 v -18.6 z"
         stroke="#60558f"
         stroke-width="2"
         stroke-miterlimit="10"
         id="path3" />
      <path
         d="m 335.659,190.845 v 18.6 h 15.3 v -18.6 z m 125.431,0.306 v 13.3 h 19.6 v -13.3 z m -43.608,14.245 v 13.3 h 15.2 v -13.3 z m -81.662,4.658 v 13.3 h 15.2 v -13.3 z m -20.381,0.027 v 9.6 h 20.2 v -9.6 z"
         stroke="#60558f"
         stroke-width="2"
         stroke-miterlimit="10"
         id="path4" />
      <path
         d="m 311.104,210.117 v 9.6 h 5 v -9.6 z m 39.917,-19.363 v 24.9 h 24.1 v -24.9 z m 66.393,0.373 v 13.3 h 15.2 v -13.3 z m 11.169,115.935 v 69.7 h 22.4 v -69.7 z"
         stroke="#60558f"
         stroke-width="2"
         stroke-miterlimit="10"
         id="path5" />
      <path
         d="m 859.801,770.7 15.7,-30.1 v -69.4 h -7.9 l -36.8,-28.9 v -34.4 l 36.8,-29.9 h 29.2 V 361.9 h -83.6 v 8.3 h -56.3 v -22.7 h -33.4 v 15.4 h -70.5 v -16.4 h -37.2 v -82.6 h -67 v -73.5 h -133.2 v -8.3 h 130.3 v -37.2 h -99.4 V 26.1 h -95.6 v 122.1 h -38.4 v 33.9 h 62.8 v 8.3 l -253.5,1.7 v 26.7 h -2.7 v 99.5 h 4.4 v 16 h -24.1 v 217.6 h 55.3 v 10 h -56.1 v 177.3 h 111.9 v 9.9 h -3.4 v 92 l 20.9,-3.5 h 6.4 l 13.1,0.4 49.4,20.9 7.9,11.3 20.6,-7.3 c 0,0 10.3,-10.5 11.5,-10.1 1.1,0.4 5.9,2.3 5.9,2.3 l 10.4,7.8 h 34.3 l -0.1,27.8 -13,20.6 v 46 h 121.1 v -39.8 l -18.3,-29.1 v -23.5 l 25.2,-0.1 6.6,-18.3 -0.1,-15.6 22.5,-11.7 25.6,-17.6 0.9,-24.3 h 51.6 l 15.1,-8.9 h 7.4 l 13.4,10.4 h 56.1 l 7.1,6.4 14.5,-7.6 29,38.2 20.7,-12.2 0.6,-32.7 z m -278,-4 v 10.7"
         stroke="#60558f"
         stroke-width="2"
         stroke-miterlimit="10"
         id="path6" />
      <path
         d="m 753.601,627 0.2,24.2 h -157.6 l -0.1,5.7 10.8,0.1 v 45.3 h 170.2 V 627 h -32.8 v -40.2 h 46.6 v -29.7 h -84.2 v 29.7 h 19.9 v 45.5 h -164.4 v -4.4 h 164.4 m -204.9,-134.4 h 99.5 v 25 h 136.3 V 447 l -208.1,-0.5 v -51 h -30.8 v -94.4 h -66.6 v 76.1 h 38.8 v 31.1 h 29.8 z m -182.8,34.2 h -83.9 v 47.8 h 22.8 v 49.4 h 67.8 v -95 h 85 v 2.8 h 23 v -78.9 h -23.6 v -27.7 h -84.9 v -101 h -51 v 9.6 h 44.3 z"
         stroke="#60558f"
         stroke-width="2"
         stroke-miterlimit="10"
         id="path7" />
      <path
         d="m 237.401,417.5 h 68.4 V 367 h -68.4 z m 10.7,-82.6 v -14.5 h -81.3 V 336 Z"
         stroke="#60558f"
         stroke-width="2"
         stroke-miterlimit="10"
         id="path8" />
      <path
         d="m 99.401,392.2 h 123 V 367 h 15.7 -93.4 m -44,74.5 h 67.5 v -24 h 78.4 m -124,24 v 84.8 h 32.5 v 35.6 m 191.4,187 V 677 h -9 v 61.4 h -96.2 v 10.5 z m -139.4,25.6 h 112.4"
         stroke="#60558f"
         stroke-width="2"
         stroke-miterlimit="10"
         id="path9" />
      <path
         d="m 98.701,719.7 h 239.3"
         stroke="#60558f"
         stroke-miterlimit="10"
         id="path10" />
      <path
         d="m 587.901,364.4 h -39 v -79.7 h 5.6 v 71.7 h 33.4 z m 12.9,-2.2 h 15.1 v -29.7 m 0,-13.4 h -14.2 V 263 m -92.9,463.5 h 47.5 m 50.6,50.9 v -75.1 m -24.1,7.9 h 24.6 m -62.3,40.7 h 11.2 v 50.8 m -168.9,60 v -58.1 m 89.8,59.7 v -56.6 m -169.2,-136 h -28.7 v -42.8 m 13.2,0 v 43.7 m -193.8,-36.4 h 55.7 v -34.5 h 89.7 V 637 m -81.4,63.6 h 90.8 v -37.8 h -90.8 z"
         stroke="#60558f"
         stroke-width="2"
         stroke-miterlimit="10"
         id="path11" />
      <path
         d="m 232.201,600.7 v 23.2 h -66.6 v -23.2 m -66.9,50.6 h 25.8 v -15.1 m 39.8,-140.3 h 81.3 v -25.2 h -81.3 z m 205.6,-71.2 v -68.8 h -24.8 m 318.2,423 v -42 h 57.8 v 40.8 m 52.3,-6.7 v -31.2 m 63.6,30.9 V 739.8 M 664.301,544 v 41.1 h -106.9 v -25.2 l 106.9,-0.4"
         stroke="#60558f"
         stroke-width="2"
         stroke-miterlimit="10"
         id="path12" />
      <path
         d="m 675.201,702.3 v -51.1 m 35.5,25.5 h -35.5 m 0,-25.5 34.1,11.3 h -32.3 l 33.7,-11.3 v 51.1"
         stroke="#60558f"
         stroke-miterlimit="10"
         stroke-dasharray="3, 3"
         id="path13" />
      <path
         d="m 704.701,702.3 -28.4,-9.8 h 34.4 l -25.8,9.8 m 25.8,-25.6 -35.5,15.8 m 0,-15.8 35.5,15.8 m 0,-31.5 -35.5,15.7 m 0,-15.7 35.5,15.7"
         stroke="#60558f"
         stroke-miterlimit="10"
         stroke-dasharray="3, 3"
         id="path14" />
      <path
         d="m 258.001,575.2 h -56.8 v -47.3 h 52.8"
         stroke="#60558f"
         stroke-width="2"
         stroke-miterlimit="10"
         id="path15" />
      <path
         d="m 254.001,567.9 h -41.4 v -7.4 h -11.4 m 52.8,-23.9 h -41.4 v 7.4 h -11.4 m 137.7,-41.5 h -15.8 v 25.2 m -11.8,-18.2 v 18.2 m -192.7,42.804 h -8.1 v 6.8 h 8.1 z m -15.847,7.706 h -4.1 v 6.8 h 4.1 z"
         stroke="#60558f"
         stroke-width="2"
         stroke-miterlimit="10"
         id="path16" />
      <path
         d="m 110.517,561.902 h -11.8 v 15.4 h 11.8 z m 31.271,127.344 h -15 v 15 h 15 z m 55.35,-39.14 h -20.5 v 12.4 h 20.5 z m 23.114,124.642 h -13.1 v 14 h 13.1 z m -8.905,14.014 h -4.2 v 7 h 4.2 z"
         stroke="#60558f"
         stroke-width="2"
         stroke-miterlimit="10"
         id="path17" />
      <path
         d="m 118.601,562.553 h -8.1 v 6.8 h 8.1 z m 538.9,182.147 h 5.6 m 57.9,0 h 5.6 m -144.3,27.3 h 25.1 m 50.1,0 h 5.6 m -127.9,-132 h 6.9 v -6.8 h -6.9 z m 116.7,11.2 h 6.9 v -6.8 h -6.9 z m -106.8,78.7 h 11.2 v -3.4 h -11.2 z m -142.5,-61 h 14.8 v -14.6 h -14.8 z m -57.3,-125 h 14.8 v -14.6 h -14.8 z m 14.8,0 h 14.8 v -14.6 h -14.8 z m 72.7,152.5 h 25.7 V 655 h -25.7 z m -15.4,-27.5 h 15.4 m 38.5,-14.7 h -56.3 m 56.3,-25.3 h -56.3 m 43.5,40 h 12.8 m -13.4,6.8 h 12.8 m 29.7,-141.7 h 18.2 M 375.801,284.7 V 181.4 m 39.7,102.4 V 181.4 m 443.6,290.5 -18.3,18.1 -49.9,-51.8 19.2,-16.3 z"
         stroke="#60558f"
         stroke-width="2"
         stroke-miterlimit="10"
         id="path18" />
      <path
         d="m 617.601,445.5 v -50 m -68.2,22.4 h 205.4 v -22.5 h -216.5"
         stroke="#60558f"
         stroke-miterlimit="10"
         id="path19" />
      <path
         d="m 461.001,195.1 h -28.4 m -321.3,146.4 10.2,-7.3 m 250.5,527.3 h 13.3 v -12.2 h -13.3 z m 105.1,1.7 h 17.2 v -10.3 h -17.2 z"
         stroke="#60558f"
         stroke-width="2"
         stroke-miterlimit="10"
         id="path20" />
      <path
         d="m 505.901,852.8 h -11.6 v 10.4 l 8.6,0.1 z m -147.1,2.6 h 13.3 v -6.1 h -13.3 z m 5,6.2 v -6.2 m -5,6.2 v -6.2"
         stroke="#60558f"
         stroke-width="2"
         stroke-miterlimit="10"
         id="path21" />
      <path
         d="m 772.001,792.4 c -3.4,-0.8 -6.6,2.2 -8.1,5.1 -0.8,1.5 -1.2,3.2 -0.6,4.9 0.3,0.8 0.7,1.4 1.2,2 0.5,0.6 1,1.1 1.2,1.8 0.4,1.2 2.3,0.7 1.9,-0.5 -0.4,-1.3 -1.4,-2.1 -2.1,-3.2 -0.7,-1.1 -0.6,-2.4 -0.1,-3.6 0.5,-1.2 1.4,-2.4 2.4,-3.3 1,-0.9 2.3,-1.6 3.6,-1.3 1.3,0.3 1.9,-1.6 0.6,-1.9 z m -11.8,17.9 c -0.4,-1.6 -1.3,-3 -2.6,-3.9 -0.7,-0.5 -1.5,-0.8 -2.3,-1.1 -0.9,-0.3 -1.7,-0.6 -2.6,-0.7 -1.7,-0.2 -3.4,0 -4.6,1.3 -1,1.1 -1.6,2.7 -1,4.2 0.2,0.5 0.7,0.8 1.2,0.7 0.5,-0.1 0.9,-0.7 0.7,-1.2 -0.4,-0.9 0,-1.8 0.7,-2.4 0.9,-0.8 2.2,-0.7 3.3,-0.5 1.2,0.3 2.6,0.7 3.6,1.4 0.9,0.7 1.5,1.7 1.7,2.8 0.2,1.1 2.1,0.6 1.9,-0.6 z"
         fill="#60558f"
         id="path22" />
      <path
         d="m 760.901,809.6 c 0.2,-0.8 0.4,-1.6 0.7,-2.3 0.1,-0.2 0.1,-0.4 0.2,-0.6 0,0 0.1,-0.3 0,-0.1 0,-0.1 0.1,-0.2 0.1,-0.3 0.2,-0.3 0.3,-0.6 0.5,-1 0,-0.1 0.1,-0.1 0.1,-0.2 l 0.1,-0.1 c 0.1,-0.1 0.2,-0.3 0.4,-0.4 l 0.2,-0.2 c -0.2,0.1 0,0 0.1,0 0.1,0 0.1,-0.1 0.2,-0.1 0.1,-0.1 0.2,-0.1 0,0 0.1,0 0.3,-0.1 0.4,-0.1 v 0 h 0.1 -0.1 l 0.2,0.1 h -0.1 c 0,0 0.1,0 0.1,0.1 l 0.1,0.1 c -0.1,0 -0.1,0 0,0 0.1,0.1 0.2,0.1 0.3,0.2 0.4,0.3 1,0.1 1.3,-0.3 0.3,-0.4 0.2,-0.9 -0.1,-1.3 -0.6,-0.7 -1.7,-0.9 -2.6,-0.7 -0.9,0.2 -1.7,0.9 -2.2,1.6 -1.1,1.5 -1.6,3.4 -2.1,5.1 -0.1,0.5 0.2,1.1 0.7,1.2 0.7,0.1 1.2,-0.1 1.4,-0.7 z"
         fill="#60558f"
         id="path23" />
      <path
         d="m 759.201,806.8 c 4.4,-7.2 8.3,-14.6 11.7,-22.3 1,-2.2 1.9,-4.4 2.8,-6.6 0.2,-0.5 -0.2,-1.1 -0.7,-1.2 -0.6,-0.2 -1,0.2 -1.2,0.7 -3.1,7.7 -6.7,15.1 -10.7,22.4 -1.1,2 -2.3,4.1 -3.5,6.1 -0.7,0.9 1,1.9 1.6,0.9 z m 114.6,-64.3 c -1.5,-1.3 -2.2,-3.2 -2.1,-5.1 0.1,-0.8 0.4,-1.9 0.9,-2.5 0.3,-0.3 0.8,-0.2 1.2,-0.2 0.7,0 1.5,0 1.9,-0.6 0.6,-0.7 0,-1.9 -0.9,-1.6 -0.3,0.1 -0.5,0.2 -0.9,0.2 h -0.9 c -0.8,0.1 -1.4,0.4 -1.9,0.9 -0.9,1 -1.3,2.3 -1.4,3.6 -0.3,2.5 0.7,5.1 2.6,6.6 0.4,0.3 1,0.4 1.4,0 0.4,-0.2 0.5,-0.9 0.1,-1.3 z m -540,111.1 c -1.2,-1.9 -2.7,-3.7 -4.6,-4.9 -1.9,-1.2 -4.4,-1.7 -6.6,-1 -2,0.6 -3.6,2.4 -4,4.4 -0.4,2.3 0.9,4.1 2.2,5.8 0.6,0.8 1.2,1.6 1.4,2.6 0.2,0.7 0.2,1.7 -0.5,2.1 -1.1,0.7 -0.1,2.4 1,1.7 1.5,-1 1.8,-2.9 1.3,-4.6 -0.5,-1.9 -2,-3.1 -3,-4.7 -0.5,-0.7 -0.8,-1.6 -0.6,-2.4 0.1,-0.9 0.7,-1.6 1.3,-2.2 1.5,-1.3 3.6,-1.2 5.3,-0.5 2.2,0.9 3.7,2.8 5,4.8 0.8,1 2.5,0 1.8,-1.1 z"
         fill="#60558f"
         id="path24" />
      <path
         d="m 321.701,855.3 c -1.4,-0.8 -3.1,-1.6 -4.8,-1.4 -1.6,0.2 -2.9,1.2 -3.5,2.7 -0.5,1.3 -0.5,2.8 -0.3,4.1 0.1,0.9 0.2,1.8 0.4,2.7 0.1,0.9 0.2,2 0.4,2.8 0.3,1 1.8,0.8 1.9,-0.3 0,-0.8 -0.2,-1.7 -0.3,-2.5 l -0.3,-2.4 c -0.1,-1 -0.2,-2.2 0,-3.2 0.2,-1 0.8,-1.8 1.9,-2 1.3,-0.1 2.6,0.6 3.7,1.2 1.1,0.6 2.1,-1.1 0.9,-1.7 z"
         fill="#60558f"
         id="path25" />
      <path
         d="m 316.401,856.1 c -1.4,-3.3 -4.4,-5.6 -7.9,-6.2 -3.7,-0.7 -7.4,0.6 -10.3,2.9 -1.7,1.3 -3.1,3 -4.1,4.9 -0.6,1.1 1.1,2.1 1.7,1 1.6,-2.8 4,-5.2 7,-6.3 2.8,-1.1 5.9,-0.8 8.5,0.7 1.4,0.8 2.5,2.1 3.1,3.5 0.2,0.5 0.7,0.8 1.2,0.7 0.6,-0.1 1,-0.7 0.8,-1.2 z"
         fill="#60558f"
         id="path26" />
      <path
         d="m 294.401,855.5 c -4.8,-2 -9.2,-4.9 -13,-8.4 -1.9,-1.7 -3.4,-3.7 -5.3,-5.4 -1.7,-1.6 -4.3,-3.5 -6.7,-2.6 -2.3,0.9 -3.1,3.5 -3.5,5.7 -0.1,0.5 0.1,1.1 0.7,1.2 0.5,0.1 1.1,-0.2 1.2,-0.7 0.2,-1.5 0.6,-3.8 2.2,-4.4 1.1,-0.4 2.2,0.2 3.1,0.8 0.9,0.6 1.8,1.4 2.5,2.3 1.6,1.8 3.2,3.5 5.1,5.1 1.8,1.6 3.8,3.1 5.9,4.4 2.3,1.5 4.8,2.7 7.3,3.8 0.5,0.2 1.1,-0.2 1.2,-0.7 0.1,-0.5 -0.2,-0.9 -0.7,-1.1 z"
         fill="#60558f"
         id="path27" />
      <path
         d="m 269.301,840.3 c 0,-3.7 -0.9,-8.3 -4.7,-9.9 -1.5,-0.7 -3.3,-0.9 -4.9,-0.2 -0.8,0.3 -1.5,0.8 -2,1.5 -0.7,0.8 -0.9,1.9 -1.4,2.8 -1,2.1 -3,3.5 -4.8,4.8 -0.4,0.3 -0.6,0.9 -0.4,1.4 0.2,0.4 0.9,0.7 1.4,0.4 1.5,-1.1 3.1,-2.2 4.2,-3.7 0.6,-0.7 1.1,-1.5 1.5,-2.4 0.3,-0.8 0.5,-1.6 1.1,-2.2 0.9,-0.9 2.3,-1.1 3.5,-0.8 1.5,0.4 2.6,1.4 3.3,2.7 0.9,1.7 1.1,3.8 1.1,5.7 0.2,1.1 2.1,1.1 2.1,-0.1 z m -19.7,-4 c -2.3,-0.9 -4.1,-2.8 -5.6,-4.7 -1.6,-1.9 -3.1,-4 -5.1,-5.6 -2.2,-1.7 -4.8,-2.8 -7.6,-2.5 -3,0.3 -5.8,1.9 -7.4,4.6 -1.7,2.9 -1.8,6.6 -0.3,9.7 0.6,1.1 2.3,0.1 1.7,-1 -1.2,-2.3 -1.1,-5.2 0.2,-7.5 1.3,-2.3 3.8,-3.7 6.3,-3.8 5.1,-0.3 8.1,4.4 11,7.9 1.7,2.1 3.7,3.9 6.2,4.9 0.5,0.2 1.1,-0.2 1.2,-0.7 0.2,-0.6 -0.1,-1.1 -0.6,-1.3 z"
         fill="#60558f"
         id="path28" />
      <path
         d="m 225.101,829.5 c 0.4,-2.2 -0.5,-4.1 -1.8,-5.7 -0.6,-0.8 -1.3,-1.5 -2.1,-2.2 -0.8,-0.7 -1.6,-1.5 -2.6,-2 -4.2,-2.4 -8.4,0.8 -11.4,3.6 -0.9,0.9 0.5,2.3 1.4,1.4 2.3,-2.1 5.7,-5.1 9,-3.3 1.5,0.8 2.8,2.2 3.9,3.5 1,1.2 2,2.7 1.7,4.3 -0.1,0.5 0.1,1.1 0.7,1.2 0.5,0 1.1,-0.3 1.2,-0.8 z m 149.6,-603.4 h -4.7 c -0.4,0 -0.9,0.1 -1.2,-0.1 -0.5,-0.2 -0.6,-1.1 -0.8,-1.6 -0.3,-0.8 -0.7,-1.4 -1.2,-2.1 -0.9,-1.1 -2.4,-2 -3.8,-2.2 -0.2,0 -0.4,-0.1 -0.6,-0.1 -0.4,0 -0.1,-0.1 -0.1,0.1 0.1,-0.4 0,-0.8 0,-1.2 v -3.2 c 0,-1.3 -2,-1.3 -2,0 v 3.4 c 0,1 -0.1,2 0.9,2.6 0.7,0.4 1.6,0.2 2.4,0.5 0.7,0.3 1.4,0.8 1.8,1.4 1,1.3 0.8,3.4 2.6,4.1 1,0.4 2.2,0.2 3.2,0.2 1.1,0 2.3,0 3.4,0.1 1.4,0.1 1.4,-1.8 0.1,-1.9 z"
         fill="#60558f"
         id="path29" />
      <path
         d="m 581.201,754.3 v -20 m 1,-12.7 v -55.4 l -43.5,33.9 h -61.6 v -67.2 h 24.2 l -1,-118.6 h 15.1 l 1,118 h 28 l 0.2,-4.4 h -25.2 l -0.4,-11.6 -1.5,-185.5 h -22 l 1,197.1 h -25.2 v 74.4 h 110.9"
         stroke="#60558f"
         stroke-width="2"
         stroke-miterlimit="10"
         id="path30" />
      <path
         d="m 123.501,452 c 2.1,0.5 4.4,0.1 6.2,-1.3 0.9,-0.7 1.7,-1.5 2.1,-2.5 0.3,-0.7 0.4,-1.5 -0.1,-2.1 -0.4,-0.4 -0.9,-0.6 -1.3,-0.9 -0.5,-0.4 -0.9,-0.8 -1.1,-1.4 -0.2,-0.5 -0.2,-0.8 0,-1.3 0.2,-0.5 -0.2,-1.1 -0.7,-1.2 -0.6,-0.2 -1,0.2 -1.2,0.7 -0.6,1.4 0,2.9 1,4 0.4,0.5 1,0.9 1.5,1.3 0.1,0 0.3,0.3 0.4,0.2 -0.4,0 0.1,-0.7 -0.1,-0.3 -0.1,0.2 -0.3,0.5 -0.4,0.7 -1.2,1.8 -3.6,2.7 -5.7,2.1 -1.3,-0.2 -1.9,1.7 -0.6,2 z m 46.6,-14.3 c 0.2,-0.3 0.4,-0.5 0.6,-0.8 0,-0.1 0.1,-0.1 0.1,-0.2 0,0 0.1,-0.2 0.1,-0.1 0.1,-0.1 0.2,-0.3 0.3,-0.4 0.4,-0.5 0.8,-1 1.3,-1.4 0.5,-0.4 0.9,-0.9 1.4,-1.3 0.2,-0.2 0.5,-0.4 0.8,-0.6 0,0 0.1,-0.1 0,0 0.1,-0.1 0.1,-0.1 0.2,-0.1 0.1,0 0.1,-0.1 0.2,-0.1 l 0.2,-0.2 c 0.1,-0.1 0.1,-0.1 0,0 0.4,-0.3 0.7,-0.9 0.4,-1.3 -0.3,-0.4 -0.9,-0.7 -1.3,-0.4 -2.3,1.6 -4.3,3.7 -5.9,6 -0.3,0.4 -0.1,1.1 0.4,1.3 0.3,0.2 0.9,0.1 1.2,-0.4 z m 9.5,-6.6 c 1,1.3 3,1 4.1,-0.1 0.6,-0.7 0.9,-1.7 0.9,-2.6 0,-0.5 -0.1,-0.9 -0.2,-1.4 0,-0.1 0,-0.4 -0.1,-0.4 0,0 -0.5,0.2 0,0.2 1.7,0 2.8,-1.1 3.3,-2.7 0.3,-0.8 0.3,-1.7 0.4,-2.5 0.1,-1.1 0.1,-2.2 0.1,-3.3 0,-1.3 -2,-1.3 -2,0 0,1.6 0,3.4 -0.3,4.9 -0.1,0.5 -0.3,1 -0.6,1.3 -0.4,0.4 -0.9,0.2 -1.4,0.3 -0.8,0.1 -1.3,0.7 -1.4,1.5 -0.1,0.7 0.2,1.4 0.2,2.1 0,0.5 -0.1,1.1 -0.6,1.4 -0.4,0.2 -0.7,0.2 -1,-0.1 -0.3,-0.4 -1.1,-0.3 -1.4,0 -0.4,0.4 -0.4,0.9 0,1.4 z"
         fill="#60558f"
         id="path31" />
      <path
         opacity="0.6"
         d="m 278.101,733.962 v -4.738 h -1 v -9.476 h 1 v -4.738 h -1 v -9.477 h 1 v -4.738 h -1 v -9.476 h 1 v -4.738 h -1 v -9.476 h 1 v -4.738 h -1 v -9.477 h 1 v -4.738 h -1 v -9.476 h 1 v -4.738 h -1 V 640.2 h -3.984 v -1 h -4.983 v 1 h -9.967 v -1 h -4.983 v 1 h -9.967 v -1 h -4.983 v 1 h -9.967 v -1 h -4.983 v 1 h -9.967 v -1 h -4.983 v 1 h -9.967 v -1 h -4.983 v 1 h -9.967 v -1 h -4.983 v 1 h -9.967 v -1 h -4.983 v 1 h -9.967 v -1 h -4.983 v 1 h -9.967 v -1 h -4.983 v 1 h -9.967 v -1 h -4.983 v 1 h -9.967 v -1 h -4.983 v 1 h -3.983 v 3.738 h -1 v 4.738 h 1 v 9.476 h -1 v 4.738 h 1 v 9.477 h -1 v 4.738 h 1 v 9.476 h -1 v 4.738 h 1 v 9.476 h -1 v 4.738 h 1 v 9.477 h -1 v 4.738 h 1 v 9.476 h -1 v 4.738 h 1 v 3.738 h 3.983 v 1 h 4.983 v -1 h 9.967 v 1 h 4.983 v -1 h 9.967 v 1 h 4.983 v -1 h 9.967 v 1 h 4.983 v -1 h 9.967 v 1 h 4.983 v -1 h 9.967 v 1 h 4.983 v -1 h 9.967 v 1 h 4.983 v -1 h 9.967 v 1 h 4.983 v -1 h 9.967 v 1 h 4.983 v -1 h 9.967 v 1 h 4.983 v -1 h 9.967 v 1 h 4.983 v -1 h 9.967 v 1 h 4.983 v -1 h 3.984 v -3.738 z M 163.301,661.9 h -1 v 5.2 h 1 v 4.2 h -1 v 8.4 h 1 v 4.2 h -1 v 8.4 h 1 v 4.2 h -1 v 5.2 h 6.1 v -1 h 5.1 v 1 h 10.2 v -1 h 5.1 v 1 h 10.2 v -1 h 5.1 v 1 h 10.2 v -1 h 5.1 v 1 h 10.2 v -1 h 5.1 v 1 h 10.2 v -1 h 5.1 v 1 h 6.1 v -5.2 h -1 v -4.2 h 1 v -8.4 h -1 v -4.2 h 1 v -8.4 h -1 v -4.2 h 1 v -5.2 h -6.1 v 1 h -5.1 v -1 h -10.2 v 1 h -5.1 v -1 h -10.2 v 1 h -5.1 v -1 h -10.2 v 1 h -5.1 v -1 h -10.2 v 1 h -5.1 v -1 h -10.2 v 1 h -5.1 v -1 z M 704.269,523.753 v 5.195 h 1 v 10.39 h -1 v 5.196 h 1 v 10.39 h -1 v 5.195 h 1 v 10.391 h -1 v 5.195 h 1 v 10.39 h -1 v 5.196 h 1 v 10.39 h -1 v 5.195 h 1 v 10.391 h -1 v 5.195 h 1 v 4.195 h 3.877 v 1 h 4.878 v -1 h 9.756 v 1 h 4.877 v -1 h 9.756 v 1 h 4.878 v -1 h 9.755 v 1 h 4.878 v -1 h 9.756 v 1 h 4.877 v -1 h 9.756 v 1 h 4.878 v -1 h 3.878 v -4.195 h 1 v -5.195 h -1 v -10.391 h 1 v -5.195 h -1 v -10.39 h 1 v -5.196 h -1 v -10.39 h 1 v -5.195 h -1 v -10.391 h 1 v -5.195 h -1 v -10.39 h 1 v -5.196 h -1 v -10.39 h 1 v -5.195 h -1 v -4.196 h -3.878 v -1 h -4.878 v 1 h -9.756 v -1 h -4.877 v 1 h -9.756 v -1 h -4.878 v 1 h -9.755 v -1 h -4.878 v 1 h -9.756 v -1 h -4.877 v 1 h -9.756 v -1 h -4.878 v 1 h -3.877 v 4.196 z"
         fill="#535895"
         stroke="#ffffff"
         stroke-width="2"
         stroke-dasharray="10, 5"
         id="path32" />
      <path
         d="m 131.09331,677.41972 h 9.69536 l 2.02904,6.06193 h 4.52133 l -9.45565,-26.03614 h -3.90186 l -9.4718,26.03614 h 4.53839 z m 8.47525,-3.64781 h -7.25424 l 3.62711,-10.80053 z"
         fill="#ffffff"
         id="path33-9"
         style="stroke-width:0.915668"
         sodipodi:nodetypes="ccccccccccccc" />
      <path
         d="m 759.70153,596.77114 v -26.03612 h 8.5785 c 2.83077,0 4.9855,0.59022 6.46328,1.77067 1.47867,1.1795 2.21847,2.93803 2.21847,5.27465 0,1.19258 -0.30974,2.26563 -0.92833,3.21914 -0.61949,0.95351 -1.52447,1.69223 -2.71675,2.21708 1.35298,0.38196 2.39533,1.10293 3.12884,2.16383 0.74517,1.04877 1.11776,2.31233 1.11776,3.79069 0,2.44402 -0.75684,4.32208 -2.26964,5.63328 -1.50113,1.31119 -3.65585,1.96678 -6.46327,1.96678 z m 4.34984,-11.74842 v 8.13611 h 4.83019 c 1.36375,0 2.42945,-0.35115 3.19797,-1.05531 0.76762,-0.70323 1.15098,-1.68008 1.15098,-2.93244 0,-2.7055 -1.32875,-4.0886 -3.98804,-4.14836 z m 0,-3.32562 h 4.26278 c 1.35298,0 2.40701,-0.3166 3.16295,-0.94791 0.76852,-0.64438 1.15188,-1.55026 1.15188,-2.71857 0,-1.28691 -0.35463,-2.21707 -1.06569,-2.78956 -0.69849,-0.57154 -1.7938,-0.85825 -3.28326,-0.85825 h -4.22866 z"
         fill="#ffffff"
         id="path33-9-8"
         style="stroke-width:0.915668"
         sodipodi:nodetypes="ccscscccscscccssscccscscscc" />
    </g>
  </g>
  <defs
     id="defs35">
    <clipPath
       id="clip0">
      <path
         fill="#fff"
         d="M0 0h1024v1000H0z"
         id="path34" />
    </clipPath>
    <clipPath
       id="clip1">
      <path
         fill="#fff"
         transform="translate(98 26)"
         d="M0 0h799v931H0z"
         id="path35" />
    </clipPath>
  </defs>
</svg>
